<svg xmlns="http://www.w3.org/2000/svg" viewBox="0 0 772 250.32"><defs><style>.cls-1{fill:#569eba;}.cls-2{fill:#fff;}.cls-3{fill:#003747;}.cls-4{fill:#005063;}</style></defs><g id="Ebene_2" data-name="Ebene 2"><g id="Ebene_1-2" data-name="Ebene 1"><g id="_2-factor-Banner" data-name="2-factor-Banner"><rect class="cls-1" width="772" height="250.32"/><path class="cls-2" d="M401.51,138.29h-39A32.57,32.57,0,0,1,330,105.75V58.07a32.57,32.57,0,0,1,32.54-32.54h39a32.58,32.58,0,0,1,32.54,32.54v47.68A32.58,32.58,0,0,1,401.51,138.29ZM362.54,46a12.1,12.1,0,0,0-12.09,12.09v47.68a12.1,12.1,0,0,0,12.09,12.09h39a12.11,12.11,0,0,0,12.09-12.09V58.07A12.11,12.11,0,0,0,401.51,46Z"/><path class="cls-3" d="M382.3,83.18l-68.85,7.44a5.06,5.06,0,0,0-5,6C313.3,121,334.27,211.05,382.3,223.71,382.79,223.84,382.3,83.18,382.3,83.18Z"/><path class="cls-4" d="M381.75,83.18l68.84,7.44a5.06,5.06,0,0,1,5,6c-4.83,24.31-25.8,114.39-73.82,127.05C381.25,223.84,381.75,83.18,381.75,83.18Z"/><path class="cls-2" d="M408.11,174.66H357.43v-11l23.35-24.54q8.63-9.83,8.63-15.61c0-3.13-.69-5.51-2.05-7.14a8,8,0,0,0-12.17.83,13.37,13.37,0,0,0-2.4,8.15H355.94A23.82,23.82,0,0,1,359.28,113a23.36,23.36,0,0,1,9.28-8.86A27.62,27.62,0,0,1,381.82,101q11.78,0,18.14,5.44T406.32,122a22.73,22.73,0,0,1-1.6,8.35,36.92,36.92,0,0,1-5,8.54,128.06,128.06,0,0,1-10.85,11.94l-9.38,10.83h28.58Z"/><path class="cls-2" d="M363.19,188.1h-3.76V192h-2.34v-9.7h6.48v1.81h-4.14v2.23h3.76Z"/><path class="cls-2" d="M368.78,190.16h-3.21L365,192h-2.49l3.55-9.7h2.2l3.58,9.7h-2.51Zm-2.65-1.81h2.09L367.17,185Z"/><path class="cls-2" d="M380.4,188.68a3.55,3.55,0,0,1-.54,1.79,3.26,3.26,0,0,1-1.41,1.2,4.66,4.66,0,0,1-2.06.43,3.83,3.83,0,0,1-3-1.25,5.14,5.14,0,0,1-1.1-3.51v-.48a5.85,5.85,0,0,1,.5-2.49,3.76,3.76,0,0,1,1.43-1.66,4.06,4.06,0,0,1,2.16-.58,4.16,4.16,0,0,1,2.83.93,3.66,3.66,0,0,1,1.22,2.56h-2.33a1.75,1.75,0,0,0-.45-1.27,1.79,1.79,0,0,0-1.27-.39,1.38,1.38,0,0,0-1.28.66,4.11,4.11,0,0,0-.43,2.08v.69a4.6,4.6,0,0,0,.39,2.21,1.42,1.42,0,0,0,1.34.67,1.79,1.79,0,0,0,1.23-.38,1.61,1.61,0,0,0,.46-1.21Z"/><path class="cls-2" d="M388.92,184.08H386V192h-2.33v-7.89h-2.86v-1.81h8.1Z"/><path class="cls-2" d="M397.93,187.32a5.75,5.75,0,0,1-.52,2.51,3.84,3.84,0,0,1-1.5,1.68,4.16,4.16,0,0,1-2.2.59,4.22,4.22,0,0,1-2.2-.57,3.89,3.89,0,0,1-1.5-1.63,5.65,5.65,0,0,1-.56-2.43v-.54a5.76,5.76,0,0,1,.52-2.52,4,4,0,0,1,1.5-1.68,4.23,4.23,0,0,1,2.22-.59,4.16,4.16,0,0,1,2.2.58,4,4,0,0,1,1.5,1.67,5.48,5.48,0,0,1,.54,2.48Zm-2.37-.41a4,4,0,0,0-.49-2.19,1.54,1.54,0,0,0-1.38-.75q-1.76,0-1.86,2.64v.71a4.24,4.24,0,0,0,.47,2.19,1.55,1.55,0,0,0,1.41.77,1.53,1.53,0,0,0,1.36-.76,4.11,4.11,0,0,0,.49-2.16Z"/><path class="cls-2" d="M402.74,188.54h-1.26V192h-2.34v-9.7H403a4.26,4.26,0,0,1,2.69.77,2.58,2.58,0,0,1,1,2.16,3.06,3.06,0,0,1-.41,1.67,2.83,2.83,0,0,1-1.28,1.08l2,3.92v.1h-2.51Zm-1.26-1.8H403a1.35,1.35,0,0,0,1-.35,1.38,1.38,0,0,0,.33-1,1.33,1.33,0,0,0-.34-1,1.29,1.29,0,0,0-1-.36h-1.48Z"/></g></g></g></svg>