<svg xmlns="http://www.w3.org/2000/svg" viewBox="0 0 128 128"><defs><style>.cls-1{fill:#569eba;}.cls-2{fill:#fff;}.cls-3{fill:#003747;}.cls-4{fill:#005063;}</style></defs><g id="Ebene_2" data-name="Ebene 2"><g id="Ebene_1-2" data-name="Ebene 1"><g id="_2-factor-icon" data-name="2-factor-icon"><rect class="cls-1" width="128" height="128"/><path class="cls-2" d="M74.76,71.06h-21a17.52,17.52,0,0,1-17.5-17.5V27.92a17.52,17.52,0,0,1,17.5-17.5h21a17.52,17.52,0,0,1,17.5,17.5V53.56A17.52,17.52,0,0,1,74.76,71.06Zm-21-49.64a6.51,6.51,0,0,0-6.5,6.5V53.56a6.51,6.51,0,0,0,6.5,6.5h21a6.51,6.51,0,0,0,6.5-6.5V27.92a6.5,6.5,0,0,0-6.5-6.5Z"/><path class="cls-3" d="M64.43,41.42l-37,4a2.72,2.72,0,0,0-2.67,3.25C27.32,61.75,38.6,110.19,64.43,117,64.69,117.07,64.43,41.42,64.43,41.42Z"/><path class="cls-4" d="M64.13,41.42l37,4a2.72,2.72,0,0,1,2.68,3.25C101.24,61.75,90,110.19,64.13,117,63.87,117.07,64.13,41.42,64.13,41.42Z"/><path class="cls-2" d="M78.31,90.62H51.06v-5.9l12.55-13.2q4.64-5.28,4.64-8.39a5.88,5.88,0,0,0-1.1-3.84A3.92,3.92,0,0,0,64,58a4,4,0,0,0-3.35,1.76,7.23,7.23,0,0,0-1.29,4.39H50.25a12.81,12.81,0,0,1,1.8-6.64,12.57,12.57,0,0,1,5-4.76A14.74,14.74,0,0,1,64.17,51q6.33,0,9.76,2.92t3.42,8.4a12.19,12.19,0,0,1-.86,4.49,20.2,20.2,0,0,1-2.67,4.59A67.73,67.73,0,0,1,68,77.83l-5,5.82H78.31Z"/><path class="cls-2" d="M54.16,97.85h-2v2.08H50.87V94.71h3.49v1H52.13v1.2h2Z"/><path class="cls-2" d="M57.16,99H55.43l-.3,1H53.79l1.91-5.22h1.18l1.93,5.22H57.46Zm-1.43-1h1.13l-.57-1.8Z"/><path class="cls-2" d="M63.41,98.16a2,2,0,0,1-.29,1,1.73,1.73,0,0,1-.76.65,2.59,2.59,0,0,1-1.11.23,2.05,2.05,0,0,1-1.62-.67A2.8,2.8,0,0,1,59,97.44v-.26a3.11,3.11,0,0,1,.27-1.34,2,2,0,0,1,.77-.89,2.12,2.12,0,0,1,1.16-.31,2.24,2.24,0,0,1,1.52.5,1.94,1.94,0,0,1,.66,1.38H62.17a1,1,0,0,0-.24-.69,1,1,0,0,0-.69-.21.77.77,0,0,0-.69.35,2.39,2.39,0,0,0-.23,1.13v.36a2.52,2.52,0,0,0,.21,1.2.76.76,0,0,0,.72.36,1,1,0,0,0,.67-.21.88.88,0,0,0,.24-.65Z"/><path class="cls-2" d="M68,95.68H66.43v4.25H65.17V95.68H63.63v-1H68Z"/><path class="cls-2" d="M72.84,97.43a3.19,3.19,0,0,1-.28,1.35,2.09,2.09,0,0,1-.81.9,2.39,2.39,0,0,1-2.37,0,2,2,0,0,1-.8-.87,3,3,0,0,1-.3-1.31v-.29a3,3,0,0,1,.28-1.35,2,2,0,0,1,.8-.91,2.29,2.29,0,0,1,1.2-.32,2.24,2.24,0,0,1,1.18.32,2.18,2.18,0,0,1,.81.89,3,3,0,0,1,.29,1.34Zm-1.28-.22A2.22,2.22,0,0,0,71.3,96a.82.82,0,0,0-.74-.4c-.63,0-1,.47-1,1.42v.38a2.27,2.27,0,0,0,.26,1.18.88.88,0,0,0,1.49,0,2.17,2.17,0,0,0,.26-1.16Z"/><path class="cls-2" d="M75.42,98.08h-.68v1.85H73.49V94.71h2.05a2.26,2.26,0,0,1,1.45.42,1.38,1.38,0,0,1,.52,1.16,1.67,1.67,0,0,1-.22.9,1.49,1.49,0,0,1-.69.58l1.09,2.1v.06H76.34Zm-.68-1h.8a.65.65,0,0,0,.72-.72.65.65,0,0,0-.72-.72h-.8Z"/></g></g></g></svg>